<svg enable-background="new 0 0 512 512" height="512" viewBox="0 0 512 512" width="512" xmlns="http://www.w3.org/2000/svg"><g fill="#fff"><path d="m10.688 95.156c70.27 59.511 193.572 164.209 229.812 196.854 4.865 4.406 10.083 6.646 15.5 6.646 5.406 0 10.615-2.219 15.469-6.604 36.271-32.677 159.573-137.385 229.844-196.896 4.375-3.698 5.042-10.198 1.5-14.719-8.188-10.447-20.396-16.437-33.48-16.437h-426.666c-13.083 0-25.292 5.99-33.479 16.438-3.542 4.52-2.875 11.02 1.5 14.718z"/><path d="m505.813 127.406c-3.781-1.76-8.229-1.146-11.375 1.542-46.021 39.01-106.656 90.552-152.385 129.885-2.406 2.063-3.76 5.094-3.708 8.271.052 3.167 1.521 6.156 4 8.135 42.49 34.031 106.521 80.844 152.76 114.115 1.844 1.333 4.031 2.01 6.229 2.01 1.667 0 3.333-.385 4.865-1.177 3.563-1.823 5.802-5.49 5.802-9.49v-243.614c-.001-4.156-2.418-7.937-6.188-9.677z"/><path d="m16.896 389.354c46.25-33.271 110.292-80.083 152.771-114.115 2.479-1.979 3.948-4.969 4-8.135.052-3.177-1.302-6.208-3.708-8.271-45.73-39.333-106.376-90.875-152.396-129.885-3.167-2.688-7.625-3.281-11.375-1.542-3.771 1.74-6.188 5.521-6.188 9.677v243.615c0 4 2.24 7.667 5.802 9.49 1.531.792 3.198 1.177 4.865 1.177 2.198 0 4.385-.677 6.229-2.011z"/><path d="m498.927 418.375c-44.656-31.948-126.917-91.51-176.021-131.365-4-3.26-9.792-3.156-13.729.24-9.635 8.406-17.698 15.49-23.417 20.635-17.563 15.854-41.938 15.854-59.542-.021-5.698-5.135-13.76-12.24-23.396-20.615-3.906-3.417-9.708-3.521-13.719-.24-48.938 39.719-131.292 99.354-176.021 131.365-2.49 1.792-4.094 4.552-4.406 7.604-.302 3.052.708 6.083 2.802 8.333 8.074 8.699 19.449 13.689 31.189 13.689h426.667c11.74 0 23.104-4.99 31.198-13.688 2.083-2.24 3.104-5.271 2.802-8.323-.313-3.051-1.917-5.822-4.407-7.614z"/></g></svg>