<svg enable-background="new 0 0 478.165 478.165" height="512" viewBox="0 0 478.165 478.165" width="512" xmlns="http://www.w3.org/2000/svg"><path d="m442.78 0h-407.356c-19.565 0-35.424 15.401-35.424 34.288v409.688c0 18.828 15.859 34.189 35.424 34.189h407.337c19.585 0 35.404-15.361 35.404-34.189v-409.688c0-18.887-15.82-34.288-35.385-34.288zm-297.777 400.244h-72.222v-215.832h72.223v215.832zm-36.161-245.279h-.478c-24.247 0-39.927-16.696-39.927-37.337 0-21.219 16.158-37.337 40.863-37.337 24.725 0 39.927 16.118 40.385 37.337.02 20.641-15.64 37.337-40.843 37.337zm296.542 245.279h-72.083v-115.437c0-29.009-10.599-48.952-36.739-48.952-20.063 0-31.798 13.428-36.958 26.458-1.893 4.423-2.391 10.898-2.391 17.393v120.537h-72.263s.916-195.629 0-215.832h72.263v30.603c9.484-14.684 26.658-35.703 65.01-35.703 47.577 0 83.161 30.862 83.161 97.167zm-148.61-184.532c.06-.219.159-.438.418-.677v.677z" fill="#fff"/></svg>